<svg width="76" height="76" viewBox="0 0 76 76" fill="none" xmlns="http://www.w3.org/2000/svg">
<g filter="url(#filter0_d_1_4822)">
<rect x="7" y="7" width="60" height="60" rx="30" fill="#F8F8F8"/>
<g clip-path="url(#clip0_1_4822)">
<path d="M25.9789 23.0393C25.6973 23.0827 25.1285 23.2885 24.8144 23.451C24.3864 23.6785 23.6769 24.3881 23.4494 24.816C23.3573 24.9948 23.2219 25.3089 23.1514 25.5202L23.0269 25.8993V30.4764C23.0269 35.4327 23.0214 35.2972 23.3248 35.9797C23.7202 36.8572 24.6302 37.6697 25.4752 37.8918L25.7027 37.9514L25.7189 39.0781C25.7352 40.3293 25.7677 40.4431 26.1035 40.6543C26.3202 40.7897 26.6777 40.806 26.8889 40.6922C26.9702 40.6489 27.6094 40.0368 28.3081 39.3381L29.581 38.0597H29.8302H30.0848L30.1119 36.7977C30.1335 35.7089 30.1498 35.4868 30.2527 35.1402C30.7781 33.3581 32.0998 32.0364 33.8873 31.4948C34.2881 31.3756 34.326 31.3756 38.1556 31.3539L42.0123 31.3377V28.6998C42.0123 25.8073 42.0014 25.6881 41.6819 25.0218C41.346 24.3177 40.7664 23.7381 40.0352 23.3752C39.2498 22.9852 39.5748 23.0014 32.4789 23.0123C28.9798 23.0123 26.0548 23.0285 25.9789 23.0393Z" fill="black"/>
<path d="M34.3315 33.0772C33.1074 33.3967 32.1432 34.3772 31.8236 35.6121C31.7261 35.9967 31.7207 36.2459 31.7207 40.4438C31.7207 43.3309 31.7424 44.9776 31.7803 45.1888C31.8074 45.3621 31.9482 45.7413 32.0836 46.023C32.5061 46.895 33.2645 47.545 34.2395 47.8755L34.6186 48L39.3853 48.0163L44.152 48.0325L45.479 49.3488C46.8928 50.7571 46.9524 50.8005 47.3695 50.7084C47.559 50.6705 47.8299 50.4592 47.9328 50.2805C47.9761 50.2046 48.0086 49.7821 48.0249 49.0346L48.052 47.9025L48.2686 47.8375C48.6315 47.7292 49.1353 47.4475 49.482 47.1605C50.094 46.6513 50.5599 45.8117 50.679 45.0155C50.7115 44.7934 50.7332 42.9138 50.7332 40.3896C50.7332 35.6338 50.7386 35.7096 50.3595 34.9459C49.9965 34.2147 49.417 33.6351 48.7128 33.2992C47.9978 32.958 48.3065 32.9688 41.1999 32.9742C35.0032 32.9742 34.7107 32.9797 34.3315 33.0772Z" fill="black"/>
<path d="M41.6364 41.1738C41.5907 41.1831 41.5497 41.2079 41.5202 41.2441C41.4907 41.2802 41.4746 41.3254 41.4746 41.372V41.807C41.4746 41.8874 41.4427 41.9646 41.3858 42.0214C41.3289 42.0783 41.2518 42.1103 41.1713 42.1103C41.0909 42.1103 41.0137 42.0783 40.9568 42.0214C40.8999 41.9646 40.868 41.8874 40.868 41.807V40.933C40.868 40.8562 40.8971 40.7823 40.9495 40.7262C41.0018 40.67 41.0735 40.6358 41.1501 40.6304C41.5096 40.6054 42.0384 40.4828 42.4675 40.2092C42.8863 39.9419 43.1935 39.5449 43.1935 38.9445C43.1935 38.3662 42.9789 37.9652 42.6673 37.6993C42.3482 37.4269 41.9041 37.2776 41.4273 37.259C40.4403 37.2204 39.5204 37.7262 39.344 38.5136C39.3265 38.5921 39.2784 38.6604 39.2105 38.7035C39.1426 38.7466 39.0603 38.761 38.9818 38.7434C38.9033 38.7259 38.8349 38.6778 38.7918 38.6099C38.7487 38.5419 38.7344 38.4597 38.7519 38.3812C38.8866 37.7797 39.2751 37.3395 39.778 37.0514C40.2836 36.7616 40.8965 36.6311 41.4512 36.653C42.0311 36.6756 42.616 36.8578 43.0612 37.2378C43.5142 37.6244 43.8002 38.1971 43.8002 38.9445C43.8002 39.8015 43.3411 40.3714 42.7939 40.7206C42.4234 40.957 42.0051 41.099 41.6364 41.1738ZM40.6658 43.6269C40.6658 43.466 40.7297 43.3117 40.8434 43.198C40.9572 43.0842 41.1115 43.0203 41.2724 43.0203C41.4333 43.0203 41.5876 43.0842 41.7014 43.198C41.8152 43.3117 41.8791 43.466 41.8791 43.6269C41.8791 43.7878 41.8152 43.9421 41.7014 44.0559C41.5876 44.1697 41.4333 44.2336 41.2724 44.2336C41.1115 44.2336 40.9572 44.1697 40.8434 44.0559C40.7297 43.9421 40.6658 43.7878 40.6658 43.6269Z" fill="#F8F8F8" stroke="#F8F8F8" stroke-width="0.404439" stroke-linecap="round" stroke-linejoin="round"/>
</g>
</g>
<defs>
<filter id="filter0_d_1_4822" x="0" y="0" width="76" height="76" filterUnits="userSpaceOnUse" color-interpolation-filters="sRGB">
<feFlood flood-opacity="0" result="BackgroundImageFix"/>
<feColorMatrix in="SourceAlpha" type="matrix" values="0 0 0 0 0 0 0 0 0 0 0 0 0 0 0 0 0 0 127 0" result="hardAlpha"/>
<feOffset dx="1" dy="1"/>
<feGaussianBlur stdDeviation="4"/>
<feComposite in2="hardAlpha" operator="out"/>
<feColorMatrix type="matrix" values="0 0 0 0 0 0 0 0 0 0 0 0 0 0 0 0 0 0 0.5 0"/>
<feBlend mode="normal" in2="BackgroundImageFix" result="effect1_dropShadow_1_4822"/>
<feBlend mode="normal" in="SourceGraphic" in2="effect1_dropShadow_1_4822" result="shape"/>
</filter>
<clipPath id="clip0_1_4822">
<rect width="27.7333" height="27.7333" fill="white" transform="translate(23 23)"/>
</clipPath>
</defs>
</svg>
