<svg width="56" height="56" viewBox="0 0 56 56" fill="none" xmlns="http://www.w3.org/2000/svg">
<rect x="4" y="4" width="48" height="48" rx="24" fill="#F8F8F8"/>
<path d="M27.6604 15.2789C27.4754 15.3739 27.3904 15.4939 26.8254 16.4239C26.6104 16.7789 26.4054 17.1089 26.3704 17.1439C26.3304 17.1839 25.8654 17.3239 25.3254 17.4539C24.7904 17.5789 24.2954 17.7239 24.2254 17.7689C24.0254 17.8989 23.9004 18.1439 23.9004 18.4039C23.9004 18.6739 23.9354 18.7239 24.7454 19.6739C25.3854 20.4289 25.3454 20.2589 25.2304 21.5989C25.1604 22.4339 25.1804 22.6389 25.3654 22.8439C25.4954 22.9839 25.7454 23.0989 25.9304 23.0989C26.0004 23.0989 26.4954 22.9189 27.0304 22.6989L28.0004 22.2989L28.9704 22.6989C29.5054 22.9189 30.0004 23.0989 30.0704 23.0989C30.2554 23.0989 30.5054 22.9839 30.6354 22.8439C30.8204 22.6389 30.8404 22.4339 30.7704 21.5989C30.6554 20.2589 30.6154 20.4289 31.2554 19.6739C32.0654 18.7239 32.1004 18.6739 32.1004 18.4039C32.1004 18.1439 31.9754 17.8989 31.7754 17.7689C31.7004 17.7189 31.2104 17.5789 30.6854 17.4539C30.1554 17.3239 29.7004 17.2089 29.6704 17.1889C29.6454 17.1689 29.3854 16.7689 29.0954 16.2989C28.8104 15.8189 28.5104 15.3939 28.4304 15.3339C28.2404 15.1989 27.8704 15.1689 27.6604 15.2789Z" fill="#0F0F0F"/>
<path d="M18.9752 18.2388C18.7602 18.3738 18.7152 18.4338 18.1752 19.3238C17.9052 19.7638 17.6802 20.1338 17.6702 20.1388C17.6652 20.1488 17.1952 20.2688 16.6302 20.4088C16.0202 20.5538 15.5552 20.6938 15.4852 20.7488C15.3252 20.8738 15.2002 21.1438 15.2002 21.3588C15.2002 21.5838 15.3102 21.7488 15.9652 22.5188C16.2752 22.8788 16.5502 23.2088 16.5852 23.2488C16.6302 23.3088 16.6252 23.5188 16.5702 24.1488C16.4752 25.3238 16.4752 25.4988 16.6102 25.6988C16.7702 25.9288 17.0252 26.0588 17.2752 26.0338C17.3852 26.0188 17.8902 25.8388 18.4002 25.6288L19.3252 25.2438L20.2852 25.6488C20.8152 25.8688 21.3102 26.0488 21.3852 26.0488C21.6402 26.0488 21.9352 25.8588 22.0502 25.6238C22.1552 25.4088 22.1552 25.4088 22.0702 24.3588L21.9902 23.3088L22.6302 22.5488C22.9852 22.1338 23.3052 21.7338 23.3452 21.6588C23.4502 21.4588 23.4352 21.1188 23.3202 20.9638C23.1252 20.7038 22.9652 20.6388 21.9752 20.3988C21.4352 20.2688 20.9802 20.1438 20.9602 20.1238C20.9402 20.1088 20.6902 19.7088 20.4002 19.2388C20.1102 18.7688 19.8152 18.3388 19.7402 18.2838C19.5502 18.1388 19.1652 18.1188 18.9752 18.2388Z" fill="#0F0F0F"/>
<path d="M36.3706 18.2188C36.1756 18.3038 36.0806 18.4338 35.5056 19.3838C35.0806 20.0838 35.0256 20.1488 34.8606 20.1938C34.7556 20.2238 34.3056 20.3338 33.8556 20.4438C33.0356 20.6388 32.8706 20.7138 32.6806 20.9638C32.5656 21.1188 32.5506 21.4588 32.6556 21.6588C32.6956 21.7338 33.0156 22.1338 33.3706 22.5488L34.0106 23.3088L33.9256 24.3538L33.8406 25.3988L33.9506 25.6238C34.0656 25.8638 34.3606 26.0488 34.6206 26.0488C34.6956 26.0488 35.1906 25.8688 35.7206 25.6488L36.6856 25.2438L37.6056 25.6288C38.1106 25.8388 38.6156 26.0188 38.7256 26.0338C38.9756 26.0588 39.2306 25.9288 39.3906 25.6988C39.5256 25.4988 39.5256 25.3238 39.4306 24.1488C39.3756 23.5188 39.3706 23.3088 39.4156 23.2488C39.4506 23.2088 39.7406 22.8638 40.0656 22.4838C40.3856 22.1038 40.6906 21.7188 40.7306 21.6388C40.9056 21.2988 40.6906 20.7688 40.3256 20.6488C40.2306 20.6188 39.7456 20.4938 39.2506 20.3738C38.7506 20.2538 38.3356 20.1488 38.3306 20.1388C38.3206 20.1288 38.0956 19.7638 37.8256 19.3238C37.5606 18.8838 37.2906 18.4688 37.2306 18.4088C37.0006 18.1538 36.6806 18.0838 36.3706 18.2188Z" fill="#0F0F0F"/>
<path d="M28.2418 25.8729C27.7537 26.0012 27.5878 26.3986 27.5377 27.5815C27.5158 28.0228 27.4908 28.2856 27.4438 28.4734C27.3594 28.8208 27.0965 29.3527 26.8274 29.7095C26.4518 30.2102 25.7133 30.8924 25.1375 31.2742L25.0029 31.3618V35.4988V39.6389L25.3503 39.786C26.2766 40.1772 27.4814 40.4933 28.7425 40.6748C29.672 40.8093 30.2728 40.8437 31.6842 40.8469C32.9922 40.85 33.0361 40.8469 33.2739 40.778C34.1971 40.512 34.873 39.8674 35.139 39.0037C35.1765 38.8848 35.3862 37.7645 35.6053 36.5158C35.9839 34.3409 35.9996 34.2283 35.9996 33.8246C35.9964 33.4585 35.9839 33.3646 35.912 33.1205C35.6679 32.3131 35.1014 31.6841 34.341 31.3806C33.8998 31.2022 33.7996 31.1959 31.9189 31.1959H30.204L30.3135 30.8893C30.567 30.1789 30.6796 29.4873 30.6796 28.6299C30.6796 27.9664 30.6452 27.7443 30.4887 27.3531C30.351 27.0057 30.2008 26.7804 29.9192 26.5019C29.6407 26.2234 29.3809 26.0607 29.0179 25.9355C28.8208 25.8666 28.392 25.8322 28.2418 25.8729Z" fill="#0F0F0F"/>
<path d="M20.8069 30.7449C20.4658 30.8482 20.1654 31.1548 20.059 31.5085C19.9964 31.7087 19.9964 31.7901 20.0026 35.7644L20.012 39.8169L20.1153 40.0266C20.2405 40.2832 20.4877 40.5179 20.7412 40.6211C20.9164 40.6931 20.9415 40.6931 21.9992 40.6931C23.0569 40.6931 23.082 40.6931 23.2572 40.6211C23.5107 40.5179 23.7579 40.2832 23.8831 40.0266L23.9863 39.8169L23.9957 35.7644C24.002 31.7901 24.002 31.7087 23.9394 31.5085C23.8299 31.1455 23.5326 30.8482 23.179 30.7418C22.9537 30.6761 21.0228 30.6761 20.8069 30.7449Z" fill="#0F0F0F"/>
<circle cx="28" cy="28" r="26.75" stroke="#F7F7F7" stroke-width="1.5"/>
</svg>
