<svg width="76" height="76" viewBox="0 0 76 76" fill="none" xmlns="http://www.w3.org/2000/svg">
<g filter="url(#filter0_d_1_4802)">
<rect x="7" y="7" width="60" height="60" rx="30" fill="#F8F8F8"/>
<path d="M26.4536 38.002V50.002H28.1567H28.8599V45.6285V41.2504L29.2208 41.0723C31.4661 39.9801 34.0021 39.8676 36.2661 40.7676C36.5286 40.8707 37.1896 41.1848 37.7333 41.466C38.2817 41.7473 38.938 42.0613 39.2005 42.1645C41.4411 43.0551 43.8036 43.1254 46.0864 42.3707C46.5083 42.2301 47.0614 41.9957 47.6333 41.7051L48.5239 41.2598L48.538 34.0785L48.5474 26.8973L47.9755 27.2301C46.0208 28.3504 44.6567 28.7676 42.9224 28.7676C42.1255 28.7676 41.4646 28.6832 40.7239 28.4816C39.9599 28.2801 39.4864 28.0832 38.1646 27.4082C36.9317 26.7848 36.3692 26.5598 35.4505 26.3301C34.0255 25.9691 32.3942 25.9504 30.9364 26.2785C30.3974 26.4004 29.713 26.616 29.2302 26.8223L28.8599 26.977V26.4895V26.002H28.1567H26.4536V38.002Z" fill="#0F0F0F"/>
</g>
<defs>
<filter id="filter0_d_1_4802" x="0" y="0" width="76" height="76" filterUnits="userSpaceOnUse" color-interpolation-filters="sRGB">
<feFlood flood-opacity="0" result="BackgroundImageFix"/>
<feColorMatrix in="SourceAlpha" type="matrix" values="0 0 0 0 0 0 0 0 0 0 0 0 0 0 0 0 0 0 127 0" result="hardAlpha"/>
<feOffset dx="1" dy="1"/>
<feGaussianBlur stdDeviation="4"/>
<feComposite in2="hardAlpha" operator="out"/>
<feColorMatrix type="matrix" values="0 0 0 0 0 0 0 0 0 0 0 0 0 0 0 0 0 0 0.5 0"/>
<feBlend mode="normal" in2="BackgroundImageFix" result="effect1_dropShadow_1_4802"/>
<feBlend mode="normal" in="SourceGraphic" in2="effect1_dropShadow_1_4802" result="shape"/>
</filter>
</defs>
</svg>
