<svg width="76" height="76" viewBox="0 0 76 76" fill="none" xmlns="http://www.w3.org/2000/svg">
<g filter="url(#filter0_d_1_4721)">
<rect x="7" y="7" width="60" height="60" rx="30" fill="#F8F8F8"/>
<path d="M45.7269 52.7216C46.2761 52.5772 46.4627 52.1301 46.519 50.7994C46.5437 50.303 46.5718 50.0073 46.6246 49.796C46.7197 49.4053 47.0154 48.8068 47.3182 48.4054C47.7406 47.8421 48.5715 47.0747 49.2192 46.6452L49.3706 46.5466V41.8925V37.2348L48.9798 37.0693C47.9378 36.6293 46.5824 36.2737 45.1636 36.0695C44.118 35.9181 43.4421 35.8794 41.8544 35.8759C40.3828 35.8724 40.3335 35.8759 40.0659 35.9533C39.0274 36.2526 38.267 36.9778 37.9677 37.9495C37.9255 38.0833 37.6896 39.3436 37.4432 40.7483C37.0172 43.1951 36.9996 43.3218 36.9996 43.7759C37.0031 44.1878 37.0172 44.2935 37.0982 44.5681C37.3728 45.4764 38.01 46.184 38.8655 46.5255C39.3618 46.7261 39.4745 46.7332 41.5903 46.7332H43.5195L43.3963 47.0782C43.1112 47.8773 42.9844 48.6554 42.9844 49.62C42.9844 50.3664 43.0232 50.6163 43.1992 51.0564C43.3541 51.4472 43.5231 51.7006 43.8399 52.014C44.1532 52.3273 44.4454 52.5104 44.8538 52.6512C45.0756 52.7286 45.5579 52.7674 45.7269 52.7216Z" fill="#0F0F0F"/>
<path d="M54.0923 47.2406C54.476 47.1244 54.814 46.7794 54.9337 46.3816C55.0041 46.1563 55.0041 46.0647 54.997 41.5937L54.9865 37.0346L54.8703 36.7987C54.7295 36.51 54.4513 36.246 54.1662 36.1298C53.969 36.0488 53.9409 36.0488 52.7509 36.0488C51.561 36.0488 51.5329 36.0488 51.3357 36.1298C51.0506 36.246 50.7724 36.51 50.6316 36.7987L50.5154 37.0346L50.5049 41.5937C50.4978 46.0647 50.4978 46.1563 50.5682 46.3816C50.6915 46.7899 51.0259 47.1244 51.4237 47.2441C51.6772 47.318 53.8493 47.318 54.0923 47.2406Z" fill="#0F0F0F"/>
<path d="M28.2731 21.2784C27.7239 21.4228 27.5373 21.8699 27.481 23.2006C27.4563 23.697 27.4282 23.9927 27.3754 24.204C27.2803 24.5947 26.9846 25.1932 26.6818 25.5946C26.2594 26.1579 25.4285 26.9253 24.7808 27.3548L24.6294 27.4534V32.1075V36.7652L25.0202 36.9307C26.0622 37.3707 27.4176 37.7263 28.8364 37.9305C29.882 38.0819 30.5579 38.1206 32.1456 38.1241C33.6172 38.1276 33.6665 38.1241 33.9341 38.0467C34.9726 37.7474 35.733 37.0222 36.0323 36.0505C36.0745 35.9167 36.3104 34.6564 36.5568 33.2517C36.9828 30.8049 37.0004 30.6782 37.0004 30.2241C36.9969 29.8122 36.9828 29.7065 36.9018 29.4319C36.6272 28.5236 35.99 27.816 35.1345 27.4745C34.6382 27.2739 34.5255 27.2668 32.4097 27.2668H30.4805L30.6037 26.9218C30.8888 26.1227 31.0156 25.3446 31.0156 24.38C31.0156 23.6336 30.9768 23.3837 30.8008 22.9436C30.6459 22.5528 30.4769 22.2994 30.1601 21.986C29.8468 21.6727 29.5546 21.4896 29.1462 21.3488C28.9244 21.2714 28.4421 21.2326 28.2731 21.2784Z" fill="#0F0F0F"/>
<path d="M19.9077 26.7594C19.524 26.8756 19.186 27.2206 19.0663 27.6184C18.9959 27.8437 18.9959 27.9353 19.003 32.4063L19.0135 36.9654L19.1297 37.2013C19.2705 37.49 19.5487 37.754 19.8338 37.8702C20.031 37.9512 20.0591 37.9512 21.2491 37.9512C22.439 37.9512 22.4671 37.9512 22.6643 37.8702C22.9494 37.754 23.2276 37.49 23.3684 37.2013L23.4846 36.9654L23.4951 32.4063C23.5022 27.9353 23.5022 27.8437 23.4318 27.6184C23.3085 27.2101 22.9741 26.8756 22.5763 26.7559C22.3228 26.682 20.1507 26.682 19.9077 26.7594Z" fill="#0F0F0F"/>
</g>
<defs>
<filter id="filter0_d_1_4721" x="0" y="0" width="76" height="76" filterUnits="userSpaceOnUse" color-interpolation-filters="sRGB">
<feFlood flood-opacity="0" result="BackgroundImageFix"/>
<feColorMatrix in="SourceAlpha" type="matrix" values="0 0 0 0 0 0 0 0 0 0 0 0 0 0 0 0 0 0 127 0" result="hardAlpha"/>
<feOffset dx="1" dy="1"/>
<feGaussianBlur stdDeviation="4"/>
<feComposite in2="hardAlpha" operator="out"/>
<feColorMatrix type="matrix" values="0 0 0 0 0 0 0 0 0 0 0 0 0 0 0 0 0 0 0.5 0"/>
<feBlend mode="normal" in2="BackgroundImageFix" result="effect1_dropShadow_1_4721"/>
<feBlend mode="normal" in="SourceGraphic" in2="effect1_dropShadow_1_4721" result="shape"/>
</filter>
</defs>
</svg>
