<svg width="76" height="76" viewBox="0 0 76 76" fill="none" xmlns="http://www.w3.org/2000/svg">
<g filter="url(#filter0_d_1_4818)">
<rect x="7" y="7" width="60" height="60" rx="30" fill="#F8F8F8"/>
<path d="M24 27V30.5756H43.6658V27H24ZM24 34.1512V37.7268H43.6658V34.1512H24ZM54.3926 34.33C54.2138 34.33 53.8562 34.5088 53.6775 34.6875L51.8897 36.4753L55.644 40.2297L57.4318 38.4419C57.7894 38.0843 57.7894 37.3692 57.4318 37.0117L55.1077 34.6875C54.9289 34.5088 54.7501 34.33 54.3926 34.33ZM50.9958 37.548L40.0902 48.2748V52.0292H43.8446L54.7501 41.1236L50.9958 37.548ZM24 41.3024V44.878H36.5146V41.3024H24Z" fill="#0F0F0F"/>
</g>
<defs>
<filter id="filter0_d_1_4818" x="0" y="0" width="76" height="76" filterUnits="userSpaceOnUse" color-interpolation-filters="sRGB">
<feFlood flood-opacity="0" result="BackgroundImageFix"/>
<feColorMatrix in="SourceAlpha" type="matrix" values="0 0 0 0 0 0 0 0 0 0 0 0 0 0 0 0 0 0 127 0" result="hardAlpha"/>
<feOffset dx="1" dy="1"/>
<feGaussianBlur stdDeviation="4"/>
<feComposite in2="hardAlpha" operator="out"/>
<feColorMatrix type="matrix" values="0 0 0 0 0 0 0 0 0 0 0 0 0 0 0 0 0 0 0.5 0"/>
<feBlend mode="normal" in2="BackgroundImageFix" result="effect1_dropShadow_1_4818"/>
<feBlend mode="normal" in="SourceGraphic" in2="effect1_dropShadow_1_4818" result="shape"/>
</filter>
</defs>
</svg>
